<?xml version="1.0" encoding="UTF-8" standalone="no"?>
<!-- Created with Inkscape (http://www.inkscape.org/) -->
<svg
   xmlns:dc="http://purl.org/dc/elements/1.1/"
   xmlns:cc="http://creativecommons.org/ns#"
   xmlns:rdf="http://www.w3.org/1999/02/22-rdf-syntax-ns#"
   xmlns:svg="http://www.w3.org/2000/svg"
   xmlns="http://www.w3.org/2000/svg"
   xmlns:xlink="http://www.w3.org/1999/xlink"
   xmlns:sodipodi="http://sodipodi.sourceforge.net/DTD/sodipodi-0.dtd"
   xmlns:inkscape="http://www.inkscape.org/namespaces/inkscape"
   width="1024"
   height="768"
   id="svg2"
   sodipodi:version="0.32"
   inkscape:version="0.46"
   version="1.0"
   sodipodi:docname="slides-me.svg"
   inkscape:output_extension="org.inkscape.output.svg.inkscape"
   style="display:inline">
  <defs
     id="defs4">
    <linearGradient
       id="linearGradient11743">
      <stop
         id="stop11745"
         offset="0"
         style="stop-color:white;stop-opacity:1" />
      <stop
         id="stop11751"
         offset="0.5"
         style="stop-color:#aaa;stop-opacity:1" />
      <stop
         id="stop11747"
         offset="1"
         style="stop-color:#888;stop-opacity:1" />
    </linearGradient>
    <linearGradient
       id="linearGradient3675">
      <stop
         id="stop3677"
         offset="0"
         style="stop-color:lime;stop-opacity:1" />
      <stop
         id="stop3679"
         offset="1"
         style="stop-color:green;stop-opacity:1" />
    </linearGradient>
    <linearGradient
       gradientTransform="translate(-250.2857,904.9336)"
       gradientUnits="userSpaceOnUse"
       xlink:href="#linearGradient11743"
       id="linearGradient11749"
       y2="24.339334"
       x2="24.38051"
       y1="9.4003391"
       x1="10.387058" />
    <linearGradient
       id="linearGradient54146">
      <stop
         id="stop54148"
         offset="0"
         style="stop-color:white;stop-opacity:1" />
      <stop
         id="stop54150"
         offset="0.5"
         style="stop-color:#aaa;stop-opacity:1" />
      <stop
         id="stop54152"
         offset="1"
         style="stop-color:#888;stop-opacity:1" />
    </linearGradient>
    <linearGradient
       gradientTransform="translate(-816.8631,462.9054)"
       gradientUnits="userSpaceOnUse"
       xlink:href="#linearGradient3675"
       id="linearGradient3697"
       y2="33.731068"
       x2="-0.13148172"
       y1="11.848195"
       x1="10.779217" />
    <linearGradient
       id="linearGradient54139">
      <stop
         id="stop54141"
         offset="0"
         style="stop-color:lime;stop-opacity:1" />
      <stop
         id="stop54143"
         offset="1"
         style="stop-color:green;stop-opacity:1" />
    </linearGradient>
    <inkscape:perspective
       id="perspective54136"
       inkscape:persp3d-origin="23.999893 : 16.000003 : 1"
       inkscape:vp_z="47.999786 : 24.000004 : 1"
       inkscape:vp_y="0 : 1000 : 0"
       inkscape:vp_x="0 : 24.000004 : 1"
       sodipodi:type="inkscape:persp3d" />
    <linearGradient
       inkscape:collect="always"
       xlink:href="#linearGradient11743"
       id="linearGradient54165"
       gradientUnits="userSpaceOnUse"
       gradientTransform="matrix(9.1613074,0,0,9.1613377,365.41826,237.42201)"
       x1="10.387058"
       y1="9.4003391"
       x2="24.38051"
       y2="24.339334" />
  </defs>
  <sodipodi:namedview
     id="base"
     pagecolor="#ffffff"
     bordercolor="#666666"
     borderopacity="1.0"
     gridtolerance="10"
     guidetolerance="10000"
     objecttolerance="10"
     inkscape:pageopacity="0.0"
     inkscape:pageshadow="2"
     inkscape:zoom="1"
     inkscape:cx="415.7807"
     inkscape:cy="397.54732"
     inkscape:document-units="px"
     inkscape:current-layer="layer3"
     showgrid="true"
     width="1024px"
     showguides="false"
     inkscape:guide-bbox="true"
     inkscape:window-width="1433"
     inkscape:window-height="1031"
     inkscape:window-x="1400"
     inkscape:window-y="84"
     inkscape:snap-global="true"
     inkscape:snap-guide="false"
     inkscape:object-nodes="true">
    <inkscape:grid
       type="xygrid"
       id="grid2383"
       visible="true"
       enabled="true"
       color="#a1a1ff"
       opacity="0.1254902"
       empcolor="#d3d7ff"
       empopacity="0.31764706" />
    <sodipodi:guide
       orientation="0,1"
       position="-651.42857,640"
       id="guide2385" />
    <sodipodi:guide
       orientation="1,0"
       position="110,660"
       id="guide2387" />
    <sodipodi:guide
       orientation="1,0"
       position="210.18749,585.13086"
       id="guide3161" />
    <sodipodi:guide
       orientation="0,1"
       position="170,540"
       id="guide3168" />
    <sodipodi:guide
       orientation="0,1"
       position="393,490"
       id="guide6961" />
    <sodipodi:guide
       orientation="0,1"
       position="659,440"
       id="guide6963" />
    <sodipodi:guide
       orientation="1,0"
       position="299.99005,583.18632"
       id="guide6965" />
    <sodipodi:guide
       orientation="0,1"
       position="863,380"
       id="guide6993" />
    <sodipodi:guide
       orientation="0,1"
       position="695,330"
       id="guide6995" />
    <sodipodi:guide
       orientation="0,1"
       position="691,280"
       id="guide6997" />
    <sodipodi:guide
       orientation="0,1"
       position="696,220"
       id="guide7372" />
    <sodipodi:guide
       orientation="0,1"
       position="555,170"
       id="guide7374" />
    <sodipodi:guide
       orientation="0,1"
       position="610,120"
       id="guide7376" />
    <sodipodi:guide
       orientation="0,1"
       position="581,70"
       id="guide10662" />
    <sodipodi:guide
       orientation="1,0"
       position="80.079843,554.54849"
       id="guide31746" />
    <sodipodi:guide
       orientation="0,1"
       position="161,671"
       id="guide47272" />
  </sodipodi:namedview>
  <metadata
     id="metadata7">
    <rdf:RDF>
      <cc:Work
         rdf:about="">
        <dc:format>image/svg+xml</dc:format>
        <dc:type
           rdf:resource="http://purl.org/dc/dcmitype/StillImage" />
        <cc:license
           rdf:resource="http://creativecommons.org/licenses/by-nc-sa/3.0/" />
        <dc:title>Tracking code changes in a distributed environment</dc:title>
      </cc:Work>
      <cc:License
         rdf:about="http://creativecommons.org/licenses/by-nc-sa/3.0/">
        <cc:permits
           rdf:resource="http://creativecommons.org/ns#Reproduction" />
        <cc:permits
           rdf:resource="http://creativecommons.org/ns#Distribution" />
        <cc:requires
           rdf:resource="http://creativecommons.org/ns#Notice" />
        <cc:requires
           rdf:resource="http://creativecommons.org/ns#Attribution" />
        <cc:prohibits
           rdf:resource="http://creativecommons.org/ns#CommercialUse" />
        <cc:permits
           rdf:resource="http://creativecommons.org/ns#DerivativeWorks" />
        <cc:requires
           rdf:resource="http://creativecommons.org/ns#ShareAlike" />
      </cc:License>
    </rdf:RDF>
  </metadata>
  <g
     inkscape:groupmode="layer"
     id="layer18"
     inkscape:label="me git"
     style="display:none">
    <g
       id="g4737">
      <rect
         y="284.30768"
         x="225.38461"
         ry="20.76923"
         height="207.69231"
         width="581.53845"
         id="shadow"
         style="fill:#60605d" />
      <rect
         y="276"
         x="217.07692"
         ry="20.76923"
         height="207.69231"
         width="581.53845"
         id="background"
         style="fill:#ffffff;stroke:#30587c;stroke-opacity:1" />
      <rect
         y="342.46155"
         x="275.23077"
         height="16.615385"
         width="49.846153"
         id="minus"
         style="fill:#c00000" />
      <use
         id="use4691"
         transform="translate(66.461538,0)"
         xlink:href="#minus"
         x="0"
         y="0"
         width="1024"
         height="768" />
      <use
         id="use4693"
         transform="translate(132.92308,0)"
         xlink:href="#minus"
         x="0"
         y="0"
         width="1024"
         height="768" />
      <path
         d="M 291.84615,384 L 291.84615,400.61538 L 275.23077,400.61538 L 275.23077,417.23077 L 291.84615,417.23077 L 291.84615,433.84615 L 308.46154,433.84615 L 308.46154,417.23077 L 325.07692,417.23077 L 325.07692,400.61538 L 308.46154,400.61538 L 308.46154,384 L 291.84615,384 z"
         id="plus"
         style="fill:#008000" />
      <use
         id="use4696"
         transform="translate(66.461538,0)"
         xlink:href="#plus"
         x="0"
         y="0"
         width="1024"
         height="768" />
      <use
         id="use4698"
         transform="translate(132.92308,0)"
         xlink:href="#plus"
         x="0"
         y="0"
         width="1024"
         height="768" />
      <g
         transform="matrix(8.3076923,0,0,8.3076923,217.07692,276)"
         id="git"
         style="fill:#008000">
        <path
           d="M 38,11 L 38,12 L 37,12 L 37,16 L 38,16 L 38,17 L 41,17 L 41,18 L 38,18 L 38,19 L 43,19 L 43,18 L 44,18 L 44,17 L 44,16 L 44,15 L 44,12 L 44,11 L 38,11 z M 40,12 L 41,12 L 41,16 L 40,16 L 40,12 z"
           id="g" />
        <path
           d="M 47,8 L 47,10 L 50,10 L 50,8 L 47,8 z M 45,11 L 45,12 L 47,12 L 47,16 L 45,16 L 45,17 L 52,17 L 52,16 L 50,16 L 50,12 L 50,11 L 45,11 z"
           id="i" />
        <path
           d="M 54,9 L 54,11 L 52,11 L 52,12 L 54,12 L 54,16 L 54,17 L 59,17 L 59,16 L 57,16 L 57,12 L 59,12 L 59,11 L 57,11 L 57,9 L 54,9 z"
           id="t" />
      </g>
    </g>
  </g>
  <g
     inkscape:groupmode="layer"
     id="layer3"
     inkscape:label="me vim"
     style="display:inline">
    <rect
       width="202.87497"
       height="198.76262"
       x="-10.926313"
       y="534.18658"
       transform="matrix(0.7071051,-0.7071085,0.7071051,0.7071085,0,0)"
       style="fill:#00e100;fill-opacity:1;stroke:#000000;stroke-width:6.04258919000000017;stroke-miterlimit:4;stroke-dasharray:none;stroke-opacity:1"
       id="rect1899" />
    <path
       d="M 387.41273,275.44944 C 386.93103,259.50294 397.17273,259.77842 397.17273,259.77842 L 490.9236,260.32828 C 490.9236,260.32828 508.07668,272.04682 507.8317,282.59757 C 507.574,293.6979 488.243,297.5813 488.243,297.5813 L 488.96472,371.46887 L 561.90687,296.79096 C 561.90687,296.79096 538.03131,280.18915 540.91987,270.41052 C 543.76052,260.79441 553.47425,260.52598 553.47425,260.52598 L 627.06301,261.63854 C 627.06301,261.63854 649.49282,275.93169 649.5148,283.6459 C 649.53688,291.38119 644.74653,296.89411 644.74653,296.89411 L 452.15853,497.31825 C 452.15853,497.31825 441.95183,509.20894 432.22618,508.59036 C 422.51996,507.97298 406.6578,481.64724 406.6578,481.64724 L 406.86402,296.06923 C 406.86402,296.06923 387.91101,291.94525 387.41273,275.44944 z"
       style="fill:#aaaaaa;fill-opacity:1;stroke:#000000;stroke-width:6.04258204000000010;stroke-miterlimit:4;stroke-opacity:1"
       id="rect3756" />
    <path
       d="M 506.19136,443.33019 L 531.28151,448.1245 L 521.93624,490.03015 C 521.93624,490.03015 523.83134,496.40332 522.64903,500.21214 C 521.55028,503.75171 517.71994,507.31673 517.71994,507.31673 L 492.62979,502.52242 L 504.02664,458.0523 C 504.02664,458.0523 501.87511,451.93548 502.28806,448.89608 C 502.70102,445.85668 506.19136,443.33019 506.19136,443.33019 z"
       style="fill:#aaaaaa;fill-opacity:1;stroke:#000000;stroke-width:4.53193665;stroke-miterlimit:4;stroke-opacity:1"
       id="rect5536" />
    <path
       d="M 536.42442,435.45879 L 572.30266,443.70666 L 608.73077,444.25652 C 608.73077,444.25652 625.09323,438.3928 628.3247,438.02333 C 631.05046,437.71166 644.09653,443.58637 645.84625,450.03009 C 647.63591,456.62084 628.29529,484.96731 628.11335,489.96372 C 627.9031,495.73655 635.77697,493.62367 635.6739,498.00535 C 635.57074,502.38713 627.70091,507.49045 627.70091,507.49045 L 606.05429,506.39073 L 623.14838,462.99091 L 606.8932,463.07849 L 585.97234,507.49045 L 567.4523,507.49045 L 586.85842,462.89792 L 568.1612,462.62967 L 548.10884,505.84086 L 524.94603,506.39073 C 524.94603,506.39073 546.0437,463.19859 545.77198,456.35342 C 545.53113,450.28477 536.42442,435.45879 536.42442,435.45879 z"
       style="fill:#aaaaaa;fill-opacity:1;stroke:#000000;stroke-width:4.53193665;stroke-miterlimit:4;stroke-dasharray:none;stroke-opacity:1"
       id="rect6429" />
    <path
       d="M 537.80604,427.22587 C 537.80604,435.63991 530.98508,442.4609 522.57106,442.4609 C 514.15695,442.4609 507.33608,435.63991 507.33608,427.22587 C 507.33608,418.81173 514.15695,411.99075 522.57106,411.99084 C 530.98508,411.99084 537.80604,418.81173 537.80604,427.22587 z"
       style="fill:#aaaaaa;fill-opacity:1;stroke:#000000;stroke-width:4.53193855;stroke-miterlimit:4;stroke-dasharray:none;stroke-opacity:1"
       id="path5540" />
  </g>
  <g
     inkscape:groupmode="layer"
     id="layer23"
     inkscape:label="me lang."
     style="display:none">
    <text
       xml:space="preserve"
       style="font-size:40px;font-style:normal;font-weight:normal;fill:#000000;fill-opacity:1;stroke:none;stroke-width:1px;stroke-linecap:butt;stroke-linejoin:miter;stroke-opacity:1;font-family:Bitstream Vera Sans"
       x="289.80273"
       y="558"
       id="text3265"><tspan
         sodipodi:role="line"
         x="289.80273"
         y="558"
         id="tspan3269">c++  perl  lua  tcl  zsh</tspan></text>
  </g>
  <g
     inkscape:groupmode="layer"
     id="layer2"
     inkscape:label="me lang"
     style="display:none">
    <image
       style="display:inline"
       y="148"
       x="384.5"
       id="image3319"
       height="346"
       width="255"
       sodipodi:absref="/home/oxygen/bart/proj/reflections/git-talk/external/K&amp;R_C.jpg"
       xlink:href="external/K&amp;R_C.jpg" />
  </g>
  <g
     inkscape:groupmode="layer"
     id="layer19"
     inkscape:label="me android"
     style="display:none">
    <g
       id="g3653"
       style="stroke:#30587c;stroke-linecap:round;stroke-opacity:1"
       transform="translate(269.41844,120.08383)">
      <path
         id="path3655"
         d="M 303,49 L 291,67"
         style="stroke:#30587c;stroke-width:30;stroke-opacity:1" />
      <path
         id="path3657"
         d="M 197,49 L 209,67"
         style="stroke:#30587c;stroke-width:30;stroke-opacity:1" />
      <path
         id="path3722"
         d="M 216,300 L 216,338"
         style="stroke:#30587c;stroke-width:60;stroke-opacity:1" />
      <path
         id="path3724"
         d="M 284,300 L 284,338"
         style="stroke:#30587c;stroke-width:60;stroke-opacity:1" />
      <path
         id="path3663"
         d="M 136,162 L 136,239"
         style="stroke:#30587c;stroke-width:60;stroke-opacity:1" />
      <path
         id="path3727"
         d="M 364,162 L 364,239"
         style="stroke:#30587c;stroke-width:60;stroke-opacity:1" />
      <ellipse
         id="ellipse3667"
         cy="132"
         cx="250"
         ry="75"
         rx="90"
         sodipodi:cx="250"
         sodipodi:cy="132"
         sodipodi:rx="90"
         sodipodi:ry="75"
         style="fill:#97c03d;stroke:#30587c;stroke-width:12;stroke-opacity:1" />
      <path
         id="path3669"
         d="M 340,138 L 160,138 L 160,276 C 160,289.80712 171.19288,301 185,301 L 315,301 C 328.80712,301 340,289.80712 340,276 L 340,138 z"
         style="fill:#97c03d;stroke:#30587c;stroke-width:12;stroke-opacity:1" />
    </g>
    <g
       id="g3671"
       style="fill:#30587c;fill-opacity:1;stroke:none;stroke-linecap:round"
       transform="translate(269.41844,120.08383)">
      <circle
         id="circle3673"
         r="9"
         cy="99"
         cx="214"
         sodipodi:cx="214"
         sodipodi:cy="99"
         sodipodi:rx="9"
         sodipodi:ry="9"
         style="fill:#30587c;fill-opacity:1" />
      <circle
         id="circle3675"
         r="9"
         cy="99"
         cx="286"
         sodipodi:cx="286"
         sodipodi:cy="99"
         sodipodi:rx="9"
         sodipodi:ry="9"
         style="fill:#30587c;fill-opacity:1" />
    </g>
    <g
       id="g3677"
       style="stroke:#97c03d;stroke-linecap:round"
       transform="translate(269.41844,120.08383)">
      <path
         id="path3679"
         d="M 303,49 L 279,85"
         style="stroke-width:6" />
      <path
         id="path3681"
         d="M 197,49 L 221,85"
         style="stroke-width:6" />
      <path
         id="path3683"
         d="M 216,300 L 216,338"
         style="stroke-width:36" />
      <path
         id="path3685"
         d="M 284,300 L 284,338"
         style="stroke-width:36" />
      <path
         id="path3687"
         d="M 136,162 L 136,239"
         style="stroke-width:36" />
      <path
         id="path3689"
         d="M 364,162 L 364,239"
         style="stroke-width:36" />
    </g>
    <g
       style="fill:none;fill-opacity:1;stroke:#30587c;stroke-width:12;stroke-linecap:square;stroke-opacity:1"
       transform="translate(297.41844,536.08383)"
       id="g3691">
      <path
         d="M 30,54 C 16.745166,54 6,43.254834 6,30 C 6,16.745166 16.745166,6 30,6 L 54,6 L 54,54"
         id="path3693"
         style="fill:none;fill-opacity:1;stroke:#30587c;stroke-opacity:1" />
      <path
         d="M 78,54 L 78,30 C 78,16.745166 88.745166,6 102,6 C 115.25483,6 126,16.745166 126,30 L 126,54"
         id="path3695"
         style="fill:none;fill-opacity:1;stroke:#30587c;stroke-opacity:1" />
      <path
         d="M 150,54 L 174,54 C 187.25483,54 198,43.254834 198,30 C 198,16.745166 187.25483,6 174,6 L 150,6"
         id="path3697"
         style="fill:none;fill-opacity:1;stroke:#30587c;stroke-opacity:1" />
      <path
         d="M 270,54 C 270,44.058875 261.94113,36 252,36 M 222,36 L 255,36 C 263.28427,36 270,29.284271 270,21 C 270,12.715729 263.28427,6 255,6 L 222,6"
         id="path3699"
         style="fill:none;fill-opacity:1;stroke:#30587c;stroke-opacity:1" />
      <circle
         sodipodi:ry="24"
         sodipodi:rx="24"
         sodipodi:cy="30"
         sodipodi:cx="318"
         r="24"
         cx="318"
         cy="30"
         id="circle3701"
         style="fill:none;fill-opacity:1;stroke:#30587c;stroke-opacity:1" />
      <path
         d="M 366,54 L 366,6"
         id="path3703"
         style="fill:none;fill-opacity:1;stroke:#30587c;stroke-opacity:1" />
      <path
         d="M 390,54 L 414,54 C 427.25483,54 438,43.254834 438,30 C 438,16.745166 427.25483,6 414,6 L 390,6"
         id="path3705"
         style="fill:none;fill-opacity:1;stroke:#30587c;stroke-opacity:1" />
    </g>
  </g>
  <g
     inkscape:groupmode="layer"
     id="layer25"
     inkscape:label="me kernel"
     style="display:none">
    <image
       y="227"
       x="235"
       id="image4815"
       height="314"
       width="554"
       sodipodi:absref="/home/oxygen/bart/proj/reflections/git-talk/external/corn-kernels__Home_page.jpg"
       xlink:href="external/corn-kernels__Home_page.jpg" />
  </g>
  <g
     inkscape:groupmode="layer"
     id="layer22"
     inkscape:label="me Linux Debian"
     style="display:none">
    <g
       style="fill:#d62766"
       id="g3170"
       transform="translate(507.722,374.144)">
      <path
         d="M 60.977,47.641 C 59.485,47.661 61.258,48.407 63.207,48.707 C 63.747,48.286 64.235,47.864 64.668,47.45 C 63.457,47.747 62.219,47.75 60.973,47.637"
         id="path3172" />
      <path
         d="M 68.997,45.645 C 69.887,44.418 70.536,43.075 70.762,41.684 C 70.563,42.672 70.028,43.528 69.52,44.43 C 66.727,46.188 69.258,43.387 69.52,42.321 C 66.52,46.102 69.11,44.586 69,45.645"
         id="path3174" />
      <path
         d="M 71.957,37.942 C 72.137,35.254 71.43,36.106 71.192,37.129 C 71.465,37.274 71.688,39.024 71.957,37.942"
         id="path3176" />
      <path
         d="M 55.309,1.16098 C 56.106,1.30099 57.032,1.41098 56.899,1.60199 C 57.77,1.41098 57.969,1.23898 55.309,1.16098"
         id="path3178" />
      <path
         d="M 56.903,1.60199 L 56.344,1.715 L 56.868,1.668 L 56.903,1.60199"
         id="path3180" />
      <path
         d="M 81.77,38.961 C 81.86,41.375 81.067,42.551 80.348,44.625 L 79.059,45.266 C 78.004,47.317 79.161,46.567 78.407,48.2 C 76.758,49.665 73.403,52.786 72.329,53.075 C 71.547,53.059 72.856,52.149 73.028,51.797 C 70.821,53.313 71.254,54.071 67.879,54.993 L 67.782,54.774 C 59.454,58.692 47.883,50.93 48.032,40.332 C 47.946,41.004 47.782,40.836 47.598,41.106 C 47.168,35.657 50.114,30.18 55.086,27.942 C 59.946,25.539 65.649,26.524 69.129,29.77 C 67.219,27.266 63.411,24.61 58.899,24.856 C 54.481,24.926 50.344,27.735 48.961,30.786 C 46.7,32.207 46.434,36.278 45.45,37.024 C 44.122,46.782 47.946,50.997 54.418,55.957 C 55.434,56.641 54.704,56.747 54.84,57.27 C 52.692,56.266 50.723,54.747 49.106,52.883 C 49.965,54.137 50.891,55.36 52.09,56.321 C 50.063,55.637 47.356,51.411 46.567,51.239 C 50.059,57.497 60.743,62.211 66.34,59.872 C 63.754,59.965 60.465,59.922 57.555,58.852 C 56.333,58.223 54.672,56.922 54.969,56.68 C 62.602,59.528 70.489,58.836 77.098,53.543 C 78.778,52.235 80.614,50.008 81.145,49.977 C 80.348,51.176 81.282,50.551 80.672,51.614 C 82.344,48.915 79.946,50.516 82.399,46.954 L 83.305,48.204 C 82.969,45.961 86.086,43.239 85.77,39.692 C 86.485,38.61 86.567,40.86 85.805,43.352 C 86.86,40.586 86.083,40.141 86.352,37.86 C 86.641,38.625 87.028,39.442 87.227,40.25 C 86.543,37.579 87.926,35.75 88.274,34.196 C 87.934,34.047 87.215,35.375 87.051,32.223 C 87.075,30.852 87.43,31.504 87.567,31.168 C 87.301,31.016 86.594,29.965 86.165,27.946 C 86.473,27.473 86.993,29.172 87.418,29.243 C 87.149,27.641 86.676,26.418 86.657,25.188 C 85.418,22.598 86.219,25.532 85.215,24.079 C 83.899,19.965 86.305,23.125 86.469,21.258 C 88.465,24.153 89.606,28.641 90.129,30.5 C 89.731,28.235 89.086,26.039 88.297,23.915 C 88.907,24.168 87.321,19.254 89.086,22.512 C 87.2,15.571 81.012,9.07898 75.317,6.03598 C 76.008,6.672 76.891,7.46899 76.575,7.59799 C 73.743,5.91498 74.243,5.78198 73.836,5.07098 C 71.532,4.133 71.379,5.14499 69.852,5.07098 C 65.504,2.76599 64.668,3.01199 60.665,1.56699 L 60.844,2.418 C 57.965,1.461 57.489,2.77798 54.375,2.418 C 54.188,2.27399 55.372,1.883 56.348,1.74298 C 53.567,2.10999 53.696,1.19598 50.969,1.84 C 51.637,1.37198 52.352,1.05899 53.067,0.656982 C 50.797,0.792999 47.645,1.97699 48.618,0.898987 C 44.915,2.55099 38.333,4.87198 34.641,8.336 L 34.528,7.56299 C 32.836,9.59 27.149,13.625 26.7,16.258 L 26.25,16.36 C 25.372,17.848 24.801,19.539 24.106,21.071 C 22.957,23.032 22.418,21.825 22.583,22.133 C 20.321,26.723 19.192,30.582 18.223,33.747 C 18.915,34.778 18.239,39.977 18.5,44.137 C 17.368,64.68 32.918,84.625 49.918,89.227 C 52.407,90.118 56.114,90.086 59.266,90.172 C 55.547,89.11 55.071,89.614 51.446,88.348 C 48.836,87.118 48.262,85.711 46.411,84.106 L 47.141,85.399 C 43.512,84.118 45.032,83.809 42.079,82.875 L 42.86,81.856 C 41.684,81.766 39.747,79.875 39.215,78.825 L 37.93,78.875 C 36.387,76.969 35.563,75.594 35.622,74.528 L 35.207,75.266 C 34.739,74.461 29.52,68.11 32.227,69.586 C 31.727,69.129 31.055,68.84 30.333,67.524 L 30.883,66.895 C 29.583,65.219 28.489,63.071 28.571,62.356 C 29.262,63.293 29.747,63.469 30.223,63.629 C 26.934,55.469 26.75,63.184 24.258,55.321 L 24.782,55.282 C 24.379,54.672 24.133,54.012 23.809,53.364 L 24.036,51.082 C 21.668,48.348 23.375,39.438 23.719,34.555 C 23.954,32.571 25.696,30.457 27.016,27.137 L 26.211,27 C 27.75,24.313 35.012,16.204 38.375,16.618 C 40.004,14.575 38.055,16.61 37.735,16.098 C 41.313,12.399 42.438,13.485 44.852,12.817 C 47.454,11.274 42.618,13.418 43.852,12.231 C 48.352,11.082 47.04,9.61798 52.915,9.03598 C 53.532,9.38699 51.481,9.57898 50.965,10.036 C 54.715,8.19998 62.833,8.62198 68.106,11.051 C 74.223,13.911 81.098,22.364 81.372,30.317 L 81.676,30.399 C 81.524,33.559 82.157,37.215 81.051,40.575 L 81.805,38.985"
         id="path3182" />
      <path
         d="M 44.665,49.692 L 44.454,50.739 C 45.434,52.071 46.215,53.516 47.469,54.559 C 46.571,52.801 45.899,52.075 44.665,49.692"
         id="path3184" />
      <path
         d="M 46.989,49.602 C 46.469,49.028 46.165,48.336 45.817,47.649 C 46.145,48.86 46.821,49.899 47.45,50.957 L 46.989,49.602"
         id="path3186" />
      <path
         d="M 88.071,40.672 L 87.852,41.223 C 87.454,44.079 86.583,46.907 85.25,49.532 C 86.719,46.766 87.672,43.739 88.071,40.672"
         id="path3188" />
      <path
         d="M 55.606,0.445984 C 56.614,0.0789795 58.086,0.246979 59.161,0 C 57.766,0.113983 56.375,0.18399 55,0.359985 L 55.606,0.441986"
         id="path3190" />
      <path
         d="M 20.133,19.305 C 20.364,21.457 18.516,22.293 20.54,20.872 C 21.629,18.418 20.118,20.196 20.133,19.305"
         id="path3192" />
      <path
         d="M 17.747,29.282 C 18.215,27.848 18.297,26.985 18.477,26.153 C 17.184,27.805 17.883,28.157 17.747,29.282"
         id="path3194" />
      <polygon
         points="66.934,111.532 63.098,115.368 59.262,111.532 63.098,107.696 66.934,111.532 "
         id="polygon3196" />
    </g>
    <path
       d="M 520.199,552.16 C 520.156,552.207 520.156,559.664 520.062,561.61 C 519.972,563.184 519.832,566.563 516.49598,566.563 C 513.06999,566.563 512.23399,562.625 511.95698,560.914 C 511.636,559.016 511.636,557.442 511.636,556.746 C 511.636,554.524 511.77299,548.313 517.011,548.313 C 518.586,548.313 519.464,548.778 520.16,549.145 L 520.199,552.16 z M 520.332,570.508 C 521.21,570.461 522.089,570.371 523.527,570.371 C 524.035,570.371 524.453,570.371 524.824,570.418 C 525.191,570.418 525.562,570.461 525.98,570.508 C 525.242,569.028 524.683,565.692 524.683,558.461 C 524.683,551.418 524.683,539.512 525.285,535.899 C 523.621,536.684 522.183,537.195 519.031,537.473 C 520.281,538.817 520.281,539.508 520.281,545.625 C 519.402,545.352 518.293,545.028 516.38999,545.028 C 508.09699,545.028 506.753,552.254 506.753,557.629 C 506.753,570.692 513.71,570.692 514.72999,570.692 C 517.601,570.692 519.457,569.117 520.242,566.387 L 520.332,570.508 z"
       id="path3198" />
    <path
       d="M 531.89,555.266 C 531.937,551.422 532.722,547.992 536.011,547.992 C 539.625,547.992 539.902,551.977 539.808,555.266 L 531.89,555.266 z M 544.402,555.731 C 544.402,550.309 543.339,544.981 536.48,544.981 C 527.031,544.981 527.031,555.453 527.031,557.676 C 527.031,567.078 531.246,570.785 538.336,570.785 C 541.484,570.785 543.015,570.324 543.847,570.094 C 543.804,568.426 544.031,567.363 544.312,565.926 C 543.339,566.528 542.089,567.317 539.308,567.317 C 532.082,567.317 531.988,560.738 531.988,558.465 L 544.312,558.465 L 544.402,555.731 z"
       id="path3200" />
    <path
       d="M 559.476,557.723 C 559.476,562.031 558.691,567.824 553.316,567.824 C 552.578,567.824 551.648,567.684 551.046,567.547 C 550.957,565.879 550.957,563.008 550.957,559.672 C 550.957,555.688 551.371,553.606 551.695,552.582 C 552.664,549.297 554.843,549.25 555.257,549.25 C 558.777,549.25 559.476,554.113 559.476,557.723 z M 546.179,562.774 C 546.179,566.199 546.179,568.149 545.625,569.629 C 547.523,570.367 549.886,570.785 552.714,570.785 C 554.519,570.785 559.757,570.785 562.582,564.996 C 563.925,562.313 564.386,558.695 564.386,555.961 C 564.386,554.293 564.203,550.637 562.859,548.317 C 561.562,546.141 559.476,545.031 557.253,545.031 C 552.808,545.031 551.511,548.735 550.816,550.637 C 550.816,548.278 550.859,540.028 551.23,535.813 C 548.222,537.203 546.367,537.43 544.375,537.617 C 546.179,538.356 546.179,541.414 546.179,551.379 L 546.179,562.774 z"
       id="path3202" />
    <path
       d="M 573.296,570.508 C 572.371,570.371 571.722,570.278 570.378,570.278 C 568.902,570.278 567.878,570.367 566.816,570.508 C 567.277,569.629 567.46,569.211 567.601,566.199 C 567.785,562.074 567.832,551.047 567.511,548.731 C 567.281,546.969 566.867,546.695 566.214,546.231 C 570.011,545.863 571.078,545.582 572.839,544.75 C 572.472,546.785 572.425,547.809 572.425,550.91 C 572.336,566.899 572.289,568.61 573.296,570.508"
       id="path3204" />
    <path
       d="M 588.132,557.395 C 588.043,560.313 587.996,562.352 587.207,563.973 C 586.234,566.059 584.613,566.656 583.41,566.656 C 580.628,566.656 580.027,564.344 580.027,562.071 C 580.027,557.719 583.918,557.395 585.675,557.395 L 588.132,557.395 z M 592.668,552.031 C 592.668,548.508 591.742,545.035 584.789,545.035 C 580.207,545.035 577.519,546.422 576.175,547.121 C 576.73,548.137 577.195,549.016 577.609,551.012 C 579.414,549.438 581.781,548.606 584.187,548.606 C 588.035,548.606 588.035,551.153 588.035,554.766 C 587.156,554.723 586.414,554.629 585.16,554.629 C 579.277,554.629 575.39,556.895 575.39,563.098 C 575.39,566.016 576.269,568.934 578.867,570.188 C 580.023,570.695 581.179,570.695 581.55,570.695 C 585.812,570.695 587.246,567.547 588.128,565.602 C 588.082,567.637 588.128,568.887 588.265,570.512 C 589.097,570.465 589.933,570.375 591.324,570.375 C 592.109,570.375 592.851,570.465 593.636,570.512 C 593.128,569.727 592.851,569.262 592.71,567.453 C 592.621,565.695 592.621,563.934 592.621,561.481 L 592.668,552.031 z"
       id="path3206" />
    <path
       d="M 614.828,565.922 C 614.871,567.496 614.871,569.164 615.515,570.508 C 614.496,570.418 613.894,570.278 611.996,570.278 C 610.882,570.278 610.281,570.367 609.402,570.508 C 609.586,569.906 609.679,569.676 609.769,568.887 C 609.906,567.824 610,564.254 610,563.004 L 610,558 C 610,555.824 610,552.672 609.863,551.563 C 609.773,550.778 609.543,548.645 606.851,548.645 C 604.21,548.645 603.332,550.586 603.007,552.164 C 602.64,553.785 602.64,555.547 602.64,562.403 C 602.683,568.332 602.683,568.887 603.148,570.508 C 602.363,570.418 601.39,570.324 600,570.324 C 598.886,570.324 598.148,570.367 597.222,570.508 C 597.546,569.77 597.73,569.399 597.824,566.805 C 597.918,564.258 598.101,551.746 597.683,548.781 C 597.457,546.973 596.992,546.559 596.484,546.094 C 600.238,545.91 601.437,545.309 602.597,544.707 L 602.597,549.617 C 603.152,548.18 604.308,544.985 608.945,544.985 C 614.738,544.985 614.781,549.199 614.828,551.977 L 614.828,565.922 z"
       id="path3208" />
  </g>
  <g
     inkscape:groupmode="layer"
     id="layer5"
     inkscape:label="me Linux"
     style="display:none">
    <image
       y="217"
       x="420"
       id="image3077"
       height="301"
       width="280"
       sodipodi:absref="/home/oxygen/bart/proj/reflections/git-talk/external/280px-Tux-linux_logo.svg.png"
       xlink:href="external/280px-Tux-linux_logo.svg.png" />
  </g>
  <g
     inkscape:groupmode="layer"
     id="layer26"
     inkscape:label="me mug"
     style="display:none">
    <text
       xml:space="preserve"
       style="font-size:40px;font-style:normal;font-weight:normal;fill:#000000;fill-opacity:1;stroke:none;stroke-width:1px;stroke-linecap:butt;stroke-linejoin:miter;stroke-opacity:1;font-family:Bitstream Vera Sans"
       x="360.85742"
       y="395.03516"
       id="text4852"><tspan
         sodipodi:role="line"
         id="tspan4854"
         x="360.85742"
         y="395.03516">mug goes here</tspan></text>
  </g>
  <g
     inkscape:groupmode="layer"
     id="layer4"
     inkscape:label="#me"
     style="display:none">
    <g
       id="g3279">
      <path
         sodipodi:nodetypes="ccccc"
         id="path3223"
         d="M 129.286,-0.571 L 206.429,-0.571 L 0,205.857 L 0,128.714 L 129.286,-0.571 z"
         style="fill:#000000;fill-opacity:1;fill-rule:evenodd;stroke:none;stroke-width:1px;stroke-linecap:butt;stroke-linejoin:miter;stroke-opacity:1" />
      <text
         transform="matrix(0.7071068,-0.7071068,0.7071068,0.7071068,0,0)"
         sodipodi:linespacing="125%"
         id="text3225"
         y="130.93117"
         x="1.0967605"
         style="font-size:40px;font-style:normal;font-variant:normal;font-weight:normal;font-stretch:normal;text-align:center;line-height:125%;writing-mode:lr-tb;text-anchor:middle;fill:#000000;fill-opacity:1;stroke:none;stroke-width:1px;stroke-linecap:butt;stroke-linejoin:miter;stroke-opacity:1;font-family:Arial;-inkscape-font-specification:Arial"
         xml:space="preserve"><tspan
           style="font-size:40px;font-style:normal;font-variant:normal;font-weight:normal;font-stretch:normal;text-align:center;line-height:100%;writing-mode:lr-tb;text-anchor:middle;fill:#ffffff;fill-opacity:1;font-family:Comic Sans MS;-inkscape-font-specification:Comic Sans MS"
           y="130.93117"
           x="1.0967605"
           id="tspan3227"
           sodipodi:role="line">about Bart</tspan></text>
    </g>
  </g>
</svg>
