<?xml version="1.0" encoding="UTF-8" standalone="no"?>
<!-- Created with Inkscape (http://www.inkscape.org/) -->

<svg
   xmlns:dc="http://purl.org/dc/elements/1.1/"
   xmlns:cc="http://creativecommons.org/ns#"
   xmlns:rdf="http://www.w3.org/1999/02/22-rdf-syntax-ns#"
   xmlns:svg="http://www.w3.org/2000/svg"
   xmlns="http://www.w3.org/2000/svg"
   version="1.1"
   width="600"
   height="600"
   id="svg2">
  <defs
     id="defs4">
    <marker
       refX="0"
       refY="0"
       orient="auto"
       id="Arrow2Sstart"
       style="overflow:visible">
      <path
         d="M 8.7185878,4.0337352 -2.2072895,0.01601326 8.7185884,-4.0017078 c -1.7454984,2.3720609 -1.7354408,5.6174519 -6e-7,8.035443 z"
         transform="matrix(0.3,0,0,0.3,-0.69,0)"
         id="path3801"
         style="font-size:12px;fill-rule:evenodd;stroke-width:0.625;stroke-linejoin:round" />
    </marker>
    <marker
       refX="0"
       refY="0"
       orient="auto"
       id="Arrow2Send"
       style="overflow:visible">
      <path
         d="M 8.7185878,4.0337352 -2.2072895,0.01601326 8.7185884,-4.0017078 c -1.7454984,2.3720609 -1.7354408,5.6174519 -6e-7,8.035443 z"
         transform="matrix(-0.3,0,0,-0.3,0.69,0)"
         id="path3804"
         style="font-size:12px;fill-rule:evenodd;stroke-width:0.625;stroke-linejoin:round" />
    </marker>
    <marker
       refX="0"
       refY="0"
       orient="auto"
       id="Arrow1Send"
       style="overflow:visible">
      <path
         d="M 0,0 5,-5 -12.5,0 5,5 0,0 z"
         transform="matrix(-0.2,0,0,-0.2,-1.2,0)"
         id="path3786"
         style="fill-rule:evenodd;stroke:#000000;stroke-width:1pt;marker-start:none" />
    </marker>
    <marker
       refX="0"
       refY="0"
       orient="auto"
       id="Arrow1Mstart"
       style="overflow:visible">
      <path
         d="M 0,0 5,-5 -12.5,0 5,5 0,0 z"
         transform="matrix(0.4,0,0,0.4,4,0)"
         id="path3777"
         style="fill-rule:evenodd;stroke:#000000;stroke-width:1pt;marker-start:none" />
    </marker>
    <marker
       refX="0"
       refY="0"
       orient="auto"
       id="Arrow1Mend"
       style="overflow:visible">
      <path
         d="M 0,0 5,-5 -12.5,0 5,5 0,0 z"
         transform="matrix(-0.4,0,0,-0.4,-4,0)"
         id="path3780"
         style="fill-rule:evenodd;stroke:#000000;stroke-width:1pt;marker-start:none" />
    </marker>
    <marker
       refX="0"
       refY="0"
       orient="auto"
       id="Arrow1Lstart"
       style="overflow:visible">
      <path
         d="M 0,0 5,-5 -12.5,0 5,5 0,0 z"
         transform="matrix(0.8,0,0,0.8,10,0)"
         id="path3771"
         style="fill-rule:evenodd;stroke:#000000;stroke-width:1pt;marker-start:none" />
    </marker>
  </defs>
  <metadata
     id="metadata7">
    <rdf:RDF>
      <cc:Work
         rdf:about="">
        <dc:format>image/svg+xml</dc:format>
        <dc:type
           rdf:resource="http://purl.org/dc/dcmitype/StillImage" />
        <dc:title></dc:title>
      </cc:Work>
    </rdf:RDF>
  </metadata>
  <g
     transform="translate(-132.92857,74.280747)"
     id="layer1">
    <g
       transform="matrix(0.63923337,0,0,0.63923337,222.03446,-40.391477)"
       id="g3051"
       style="fill:#cccccc;stroke:#999999">
      <rect
         width="451.42856"
         height="125.71429"
         rx="15"
         ry="15"
         x="133.42857"
         y="255.21933"
         id="rect2987"
         style="fill:#ececec;stroke:#999999;stroke-width:0.99963492;stroke-miterlimit:4;stroke-dasharray:3.99853969, 3.99853969;stroke-dashoffset:0" />
      <text
         x="167.4827"
         y="329.11163"
         id="text2989"
         xml:space="preserve"
         style="font-size:40px;font-style:normal;font-weight:normal;line-height:125%;letter-spacing:0px;word-spacing:0px;fill:#999999;fill-opacity:1;stroke:#999999;font-family:Sans"><tspan
           x="167.4827"
           y="329.11163"
           id="tspan2991">Repositorio Central</tspan></text>
    </g>
    <g
       transform="matrix(0.43630215,0,0,0.43630215,483.40474,-266.34601)"
       id="g3041">
      <rect
         width="451.42856"
         height="125.71429"
         rx="15"
         ry="15"
         x="68.571434"
         y="536.64789"
         id="rect2987-0"
         style="fill:#aaccff;stroke:#000000" />
      <text
         x="247.10797"
         y="610.54022"
         id="text2989-3"
         xml:space="preserve"
         style="font-size:40px;font-style:normal;font-weight:normal;line-height:125%;letter-spacing:0px;word-spacing:0px;fill:#000000;fill-opacity:1;stroke:none;font-family:Sans"><tspan
           x="247.10797"
           y="610.54022"
           id="tspan2991-4">Alice</tspan></text>
    </g>
    <g
       transform="matrix(0.49267193,0,0,0.49267193,148.1277,-75.799345)"
       id="g3046">
      <rect
         width="451.42856"
         height="125.71429"
         rx="15"
         ry="15"
         x="135.71429"
         y="778.07648"
         id="rect2987-0-6"
         style="fill:#8080ff;stroke:#000000" />
      <text
         x="321.92664"
         y="851.96881"
         id="text2989-3-1"
         xml:space="preserve"
         style="font-size:40px;font-style:normal;font-weight:normal;line-height:125%;letter-spacing:0px;word-spacing:0px;fill:#000000;fill-opacity:1;stroke:none;font-family:Sans"><tspan
           x="321.92664"
           y="851.96881"
           id="tspan2991-4-3">Bob</tspan></text>
    </g>
  </g>
  <g
     id="layer2" />
  <g
     id="layer3">
    <text
       x="213.1422"
       y="160.58363"
       id="text7220"
       xml:space="preserve"
       style="font-size:48px;font-style:normal;font-weight:normal;line-height:125%;letter-spacing:0px;word-spacing:0px;fill:#000000;fill-opacity:1;stroke:none;font-family:Sans"><tspan
         x="213.1422"
         y="160.58363"
         id="tspan7222" /></text>
  </g>
  <g
     id="layer4">
    <text
       x="275.52887"
       y="344.28729"
       id="text7224-0"
       xml:space="preserve"
       style="font-size:48px;font-style:normal;font-weight:normal;line-height:125%;letter-spacing:0px;word-spacing:0px;fill:#000000;fill-opacity:1;stroke:none;font-family:Sans"><tspan
         x="275.52887"
         y="344.28729"
         id="tspan7226-1"
         style="font-size:24px;fill:#800000;stroke:none" /></text>
  </g>
</svg>
